<?xml version="1.0" encoding="UTF-8" standalone="no"?>
<!-- Generator: Adobe Fireworks CS6, Export SVG Extension by Aaron Beall (http://fireworks.abeall.com) . Version: 0.6.1  -->

<svg
   xmlns:dc="http://purl.org/dc/elements/1.1/"
   xmlns:cc="http://creativecommons.org/ns#"
   xmlns:rdf="http://www.w3.org/1999/02/22-rdf-syntax-ns#"
   xmlns:svg="http://www.w3.org/2000/svg"
   xmlns="http://www.w3.org/2000/svg"
   xmlns:sodipodi="http://sodipodi.sourceforge.net/DTD/sodipodi-0.dtd"
   xmlns:inkscape="http://www.inkscape.org/namespaces/inkscape"
   id="Untitled-Page%201"
   viewBox="0 0 1688.6863 500"
   version="1.1"
   xml:space="preserve"
   x="0px"
   y="0px"
   width="1688.6863"
   height="500"
   inkscape:version="0.91 r13725"
   sodipodi:docname="3818.svg"><metadata
     id="metadata18"><rdf:RDF><cc:Work
         rdf:about=""><dc:format>image/svg+xml</dc:format><dc:type
           rdf:resource="http://purl.org/dc/dcmitype/StillImage" /><dc:title></dc:title></cc:Work></rdf:RDF></metadata><defs
     id="defs16" /><sodipodi:namedview
     pagecolor="#ffffff"
     bordercolor="#666666"
     borderopacity="1"
     objecttolerance="10"
     gridtolerance="10"
     guidetolerance="10"
     inkscape:pageopacity="0"
     inkscape:pageshadow="2"
     inkscape:window-width="1920"
     inkscape:window-height="1016"
     id="namedview14"
     showgrid="false"
     inkscape:zoom="0.35355339"
     inkscape:cx="702.21782"
     inkscape:cy="160.06157"
     inkscape:window-x="1680"
     inkscape:window-y="27"
     inkscape:window-maximized="1"
     inkscape:current-layer="g4198"
     fit-margin-top="0"
     fit-margin-left="0"
     fit-margin-right="0"
     fit-margin-bottom="0"
     inkscape:snap-page="true"
     inkscape:snap-smooth-nodes="true"
     inkscape:object-nodes="true"
     inkscape:snap-intersection-paths="true" /><g
     id="g4198"
     transform="translate(-1560,0)"><rect
       style="color:#000000;clip-rule:nonzero;display:inline;overflow:visible;visibility:visible;opacity:1;isolation:auto;mix-blend-mode:normal;color-interpolation:sRGB;color-interpolation-filters:linearRGB;solid-color:#000000;solid-opacity:1;fill:#000000;fill-opacity:1;fill-rule:evenodd;stroke:none;stroke-width:0.99999964px;stroke-linecap:butt;stroke-linejoin:miter;stroke-miterlimit:4;stroke-dasharray:none;stroke-dashoffset:0;stroke-opacity:1;marker:none;color-rendering:auto;image-rendering:auto;shape-rendering:auto;text-rendering:auto;enable-background:accumulate"
       id="rect4148"
       width="1688.6863"
       height="500"
       x="1560"
       y="0"
       inkscape:export-xdpi="90"
       inkscape:export-ydpi="90" /><g
       transform="translate(1560,0)"
       id="g4187"><rect
         style="color:#000000;clip-rule:nonzero;display:inline;overflow:visible;visibility:visible;opacity:1;isolation:auto;mix-blend-mode:normal;color-interpolation:sRGB;color-interpolation-filters:linearRGB;solid-color:#000000;solid-opacity:1;fill:#000000;fill-opacity:1;fill-rule:evenodd;stroke:none;stroke-width:0.99999964px;stroke-linecap:butt;stroke-linejoin:miter;stroke-miterlimit:4;stroke-dasharray:none;stroke-dashoffset:0;stroke-opacity:1;marker:none;color-rendering:auto;image-rendering:auto;shape-rendering:auto;text-rendering:auto;enable-background:accumulate"
         id="rect4183"
         width="500"
         height="500"
         x="0"
         y="0"
         inkscape:export-xdpi="90"
         inkscape:export-ydpi="90" /><g
         id="g4177"
         style="fill:#ffffff"
         transform="matrix(0.85152045,0,0,0.85152045,37.250905,37.197435)"><path
           inkscape:connector-curvature="0"
           style="fill:#ffffff"
           id="path6"
           d="m 147.36923,158.5323 10.95124,0 c 11.55631,0 19.27879,-2.06894 23.15091,-6.20906 1.83021,-1.83321 3.23703,-4.005 4.22045,-6.53787 1.43609,-4.21519 2.42777,-8.38083 2.96527,-12.51045 0.52924,-4.12886 0.61182,-8.48969 0.22671,-13.08023 -0.60657,-7.73073 -1.48264,-13.47286 -2.61845,-17.20835 -1.14857,-3.755012 -2.88795,-6.739053 -5.24741,-8.967137 -5.92979,-5.432832 -15.36087,-8.145119 -28.28721,-8.145119 -14.52083,0 -27.06882,2.712287 -37.6342,8.145119 -2.82114,1.462368 -5.29395,3.116915 -7.47174,4.988416 -2.16352,1.888011 -4.4329,4.312781 -6.78485,7.296071 l 0.46169,0.45643 c 7.75175,-3.59586 15.00503,-5.38629 21.77486,-5.38629 7.45748,0 13.55994,1.96984 18.30212,5.90352 4.75045,3.9457 7.13318,9.09026 7.13318,15.43369 0,7.05435 -2.71604,12.7687 -8.15413,17.16556 -5.42983,4.39311 -12.51721,6.59792 -21.2749,6.59792 -8.73592,0 -15.93591,-2.50885 -21.608213,-7.51078 -5.66555,-5.01619 -8.493445,-11.34686 -8.493445,-19.00027 0,-5.50039 1.664307,-10.76732 5.022198,-15.78351 3.342877,-5.01094 7.97921,-9.241147 13.90826,-12.683117 12.09381,-7.041586 29.26237,-10.558626 51.54321,-10.558626 11.63964,0 22.44074,0.9624 32.39355,2.872186 9.95281,1.91354 18.47704,4.616819 25.54715,8.150374 7.06486,3.520794 12.57877,7.730732 16.53422,12.622303 3.95545,4.90284 5.9373,10.25234 5.9373,16.05828 0,9.26291 -4.45542,17.113 -13.34223,23.53676 -5.71059,4.36008 -15.14166,8.3358 -28.28571,11.94067 -4.94637,1.22064 -11.78377,2.48858 -20.52645,3.78429 l 0,0.45643 c 13.90826,1.93005 24.98788,4.15664 33.24785,6.72103 8.23596,2.55314 14.91495,5.71435 20.00471,9.46261 4.79474,3.52079 8.40186,7.50101 10.83789,11.93466 2.42777,4.4374 3.64541,9.18784 3.64541,14.22956 0,6.50634 -1.96684,12.41361 -5.92229,17.73609 -3.96295,5.31497 -9.74862,9.88975 -17.39527,13.71458 -7.64665,3.83384 -16.57851,6.73905 -26.80307,8.72541 -10.22607,1.99462 -21.87321,2.98404 -34.95795,2.98404 -6.98829,0 -13.85646,-0.4324 -20.579,-1.31748 -6.7308,-0.88208 -13.0472,-2.20331 -18.93046,-3.96296 -5.89226,-1.76265 -10.55112,-3.65967 -13.96982,-5.73987 -6.39072,-3.90365 -11.412921,-8.6616 -15.058331,-14.28436 -3.652917,-5.61975 -5.475622,-11.497 -5.475622,-17.62423 0,-7.94544 2.64022,-14.26785 7.925914,-18.94022 5.286445,-4.66561 12.297999,-6.9988 21.041429,-6.9988 8.90183,0 16.17764,2.33319 21.83493,6.9988 5.6648,4.67237 8.50771,10.6337 8.50771,17.91401 0,4.42989 -1.11104,8.40861 -3.3046,11.92415 -2.21607,3.53506 -5.2414,6.26761 -9.06773,8.21944 -3.8496,1.95182 -8.27424,2.92549 -13.28893,2.92549 -6.3149,0 -12.32127,-1.49916 -18.02286,-4.47794 l -0.45417,0.46243 c 3.56959,6.11747 10.01437,10.97977 19.33208,14.56287 9.3027,3.61238 20.32151,5.40281 33.02039,5.40281 14.4315,0 24.39857,-2.86468 29.86744,-8.61206 2.5171,-2.82264 4.21969,-5.50565 5.13555,-8.03627 3.03959,-8.78997 4.2197,-17.89749 3.53956,-27.31205 -0.54426,-7.79529 -1.41432,-13.7461 -2.6252,-17.84193 -1.21764,-4.09433 -3.00206,-7.28557 -5.35476,-9.59098 -4.95314,-4.73242 -13.41655,-7.1129 -25.43529,-7.1129 l -11.63889,0 0,-3.89314 z" /><path
           inkscape:connector-curvature="0"
           style="fill:#ffffff"
           id="path8"
           d="m 285.88805,173.33164 c -8.12935,-4.51547 -14.11245,-8.90708 -17.90875,-13.2026 -6.91998,-7.87561 -10.37696,-16.75192 -10.37696,-26.61765 0,-5.36451 0.99093,-10.56388 2.96527,-15.61685 1.98111,-5.04397 4.90885,-9.74112 8.78772,-14.05916 3.88038,-4.321788 8.40337,-8.053529 13.56895,-11.18771 6.3074,-3.828582 14.09743,-6.773586 23.37761,-8.837267 9.27268,-2.071187 18.96875,-3.097397 29.08746,-3.097397 13.00141,0 24.92857,1.757394 35.80399,5.280439 10.86942,3.520794 19.42292,8.337299 25.66276,14.460025 6.23158,6.11597 9.34774,12.85503 9.34774,20.18789 0,3.99373 -0.83102,7.62863 -2.51034,10.91821 -1.66431,3.28582 -4.21295,6.35019 -7.63089,9.17808 -3.41945,2.82865 -8.22244,5.77891 -14.3707,8.82676 4.78723,2.38498 8.77271,4.70465 11.9647,7.01081 3.19949,2.2964 6.11822,4.9704 8.78922,8.03251 8.43939,8.95137 12.65233,19.43643 12.65233,31.45067 0,5.65054 -1.04272,11.06835 -3.13118,16.23994 -2.09521,5.16108 -5.11978,9.69907 -9.06848,13.60273 -5.32323,5.50414 -11.47298,9.52491 -18.48379,12.04726 -14.13572,5.2857 -31.46268,7.91916 -51.99739,7.91916 -10.25534,0 -20.73815,-1.16208 -31.41013,-3.50052 -10.69375,-2.33318 -18.92295,-5.14982 -24.69285,-8.43414 -6.16401,-3.59962 -11.08036,-8.03176 -14.77907,-13.31145 -3.68295,-5.2842 -5.52817,-10.55863 -5.52817,-15.84808 0,-13.37751 9.96032,-23.86107 29.88095,-31.44166 z m 5.1363,2.29715 c -5.32548,2.98329 -9.21937,6.65047 -11.69293,11.0143 -2.47282,4.36083 -3.70622,9.7216 -3.70622,16.06428 0,10.03839 3.11616,18.09718 9.35675,24.23117 3.7888,3.73924 8.24271,6.61819 13.34824,8.59028 10.17201,3.75877 22.37243,5.63402 36.59898,5.63402 17.18283,0 30.50178,-2.09821 39.97865,-6.31566 9.46185,-4.19867 14.19578,-10.12472 14.19578,-17.79089 0,-5.73086 -2.4045,-10.36419 -7.19173,-13.88123 -2.73105,-2.06894 -5.09877,-3.40744 -7.06486,-4.02827 -8.1301,-3.50803 -19.8846,-6.72854 -35.23721,-9.62625 -7.60837,-1.53744 -13.88574,-2.88645 -18.8171,-4.08157 -4.94563,-1.18761 -9.75613,-2.52537 -14.43751,-4.0095 -4.67462,-1.4939 -9.7869,-3.42921 -15.33084,-5.80068 z m 85.30605,-28.46663 c 4.48319,-3.20399 7.70521,-6.75256 9.63526,-10.61192 1.92781,-3.86162 2.90297,-8.5535 2.90297,-14.06441 0,-11.86034 -4.63559,-20.97237 -13.90151,-27.310546 -9.28618,-6.356196 -22.40095,-9.526411 -39.35781,-9.526411 -9.12929,0 -17.12277,1.00444 -24.00596,3.041845 -6.88168,2.021641 -12.18389,4.855542 -15.90437,8.489692 -3.73625,3.64166 -5.59724,7.93792 -5.59724,12.91358 0,5.27293 2.25436,9.5692 6.7383,12.85352 2.3527,1.90979 4.71216,3.2528 7.07237,4.01175 9.0377,3.98248 20.57149,7.20299 34.55632,9.63827 8.05429,1.53819 14.8534,3.06437 20.40484,4.60256 5.55144,1.53218 11.36788,3.51328 17.45683,5.96207 z" /><path
           inkscape:connector-curvature="0"
           style="fill:#ffffff"
           id="path10"
           d="m 105.26942,299.35212 9.80942,-4.92461 c 14.89919,-7.64965 28.54395,-14.96074 40.93955,-21.91825 10.03689,-5.81719 19.46721,-11.43995 28.27895,-16.87579 l 4.90884,0 0,144.49516 29.42077,15.04182 10.26285,0 0,2.86994 -128.06754,0 0,-2.86994 9.80192,0 31.13762,-15.72495 0,-114.43104 -14.71751,7.69394 c -1.21013,0.60132 -5.03046,2.63347 -11.45046,6.07919 -6.42977,3.44197 -9.87774,5.28044 -10.32441,5.51691 l 0,-4.95238 z" /><path
           inkscape:connector-curvature="0"
           style="fill:#ffffff"
           id="path12"
           d="m 286.18298,347.79568 c -8.1301,-4.51547 -14.09744,-8.90708 -17.89374,-13.2026 -6.91321,-7.87561 -10.38446,-16.75192 -10.38446,-26.61765 0,-5.36451 0.98267,-10.56388 2.96527,-15.61685 1.98036,-5.04397 4.90734,-9.74112 8.77271,-14.05916 3.87888,-4.32179 8.41012,-8.05353 13.5757,-11.18771 6.31566,-3.82858 14.10494,-6.77359 23.38512,-8.83727 9.28018,-2.07118 18.96124,-3.09739 29.08071,-3.09739 12.9939,0 24.94358,1.75739 35.81149,5.28043 10.86867,3.5208 19.42217,8.3373 25.6545,14.46003 6.23233,6.11597 9.3485,12.85503 9.3485,20.18789 0,3.99373 -0.83253,7.62863 -2.5111,10.91821 -1.67107,3.28582 -4.21294,6.35019 -7.63089,9.17808 -3.42696,2.82865 -8.21343,5.77891 -14.37745,8.82676 4.79473,2.38498 8.78847,4.70465 11.9722,7.01081 3.19874,2.2964 6.12573,4.9704 8.78847,8.03251 8.44014,8.95137 12.6681,19.43643 12.6681,31.45067 0,5.65054 -1.05173,11.06835 -3.14619,16.23994 -2.10272,5.16108 -5.10553,9.69907 -9.06774,13.60273 -5.32548,5.50414 -11.48124,9.52491 -18.46277,12.04726 -14.14998,5.2857 -31.4852,7.91916 -52.01915,7.91916 -10.26285,0 -20.73815,-1.16208 -31.41764,-3.50052 -10.67874,-2.33318 -18.90719,-5.14982 -24.6936,-8.43414 -6.149,-3.59962 -11.08037,-8.03176 -14.76406,-13.31145 -3.6897,-5.2842 -5.52892,-10.55863 -5.52892,-15.84808 0,-13.37751 9.9468,-23.86107 29.87494,-31.44166 z m 5.13631,2.29715 c -5.32473,2.98329 -9.22839,6.65047 -11.69294,11.0143 -2.47357,4.36083 -3.70622,9.7216 -3.70622,16.06428 0,10.03839 3.10791,18.09718 9.36351,24.23117 3.79555,3.73924 8.25172,6.61819 13.34073,8.59028 10.18027,3.75877 22.38744,5.63402 36.60574,5.63402 17.18432,0 30.50253,-2.09821 39.96363,-6.31566 9.46936,-4.19867 14.19653,-10.12472 14.19653,-17.79089 0,-5.73086 -2.39774,-10.36419 -7.17746,-13.88123 -2.73781,-2.06894 -5.09727,-3.40744 -7.07087,-4.02827 -8.14587,-3.50803 -19.87634,-6.72854 -35.23721,-9.62625 -7.59335,-1.53744 -13.87823,-2.88645 -18.82385,-4.08157 -4.94713,-1.18761 -9.75013,-2.52537 -14.424,-4.0095 -4.67462,-1.4939 -9.79441,-3.42921 -15.33759,-5.80068 z m 85.30454,-28.46663 c 4.4847,-3.20399 7.70671,-6.75256 9.63526,-10.61192 1.93681,-3.86162 2.91198,-8.5535 2.91198,-14.06441 0,-11.86034 -4.64385,-20.97237 -13.90826,-27.31055 -9.28018,-6.35619 -22.40246,-9.52641 -39.35106,-9.52641 -9.12103,0 -17.13103,1.00444 -24.00596,3.04185 -6.86667,2.02164 -12.17714,4.85554 -15.90513,8.48969 -3.73624,3.64166 -5.58147,7.93792 -5.58147,12.91358 0,5.27293 2.23034,9.5692 6.71504,12.85352 2.3527,1.90979 4.71215,3.2528 7.06485,4.01175 9.05347,3.98248 20.5715,7.20299 34.55633,9.63827 8.06254,1.53819 14.8624,3.06437 20.4206,4.60256 5.55069,1.53218 11.37464,3.51328 17.44782,5.96207 z" /></g></g><path
       inkscape:connector-curvature="0"
       id="rect4172"
       d="m 2060,476 c 388.2288,0 776.4573,0 1164.6861,0 0,-150.66667 0,-301.33333 0,-452 -388.2288,0 -776.4573,0 -1164.6861,0 0,150.66667 0,301.33333 0,452 z"
       style="color:#000000;clip-rule:nonzero;display:inline;overflow:visible;visibility:visible;opacity:1;isolation:auto;mix-blend-mode:normal;color-interpolation:sRGB;color-interpolation-filters:linearRGB;solid-color:#000000;solid-opacity:1;fill:#ffffff;fill-opacity:1;fill-rule:evenodd;stroke:none;stroke-width:0.99999964px;stroke-linecap:butt;stroke-linejoin:miter;stroke-miterlimit:4;stroke-dasharray:none;stroke-dashoffset:0;stroke-opacity:1;marker:none;color-rendering:auto;image-rendering:auto;shape-rendering:auto;text-rendering:auto;enable-background:accumulate" /><text
       sodipodi:linespacing="125%"
       id="text4166"
       y="214.21053"
       x="2164.3281"
       style="font-style:normal;font-variant:normal;font-weight:normal;font-stretch:normal;font-size:132.78416443px;line-height:125%;font-family:Roboto;-inkscape-font-specification:'Roboto, Normal';text-align:start;letter-spacing:2.14185071px;word-spacing:0px;writing-mode:lr-tb;text-anchor:start;fill:#000000;fill-opacity:1;stroke:none;stroke-width:1px;stroke-linecap:butt;stroke-linejoin:miter;stroke-opacity:1"
       xml:space="preserve"><tspan
         y="214.21053"
         x="2164.3281"
         id="tspan4168"
         sodipodi:role="line">UX, DESIGN &amp; </tspan><tspan
         id="tspan4170"
         y="380.19073"
         x="2164.3281"
         sodipodi:role="line">DEVELOPMENT</tspan></text>
</g></svg>