<?xml version="1.0" encoding="UTF-8" standalone="no"?>
<!-- Created with Inkscape (http://www.inkscape.org/) -->

<svg
   xmlns:dc="http://purl.org/dc/elements/1.1/"
   xmlns:cc="http://creativecommons.org/ns#"
   xmlns:rdf="http://www.w3.org/1999/02/22-rdf-syntax-ns#"
   xmlns:svg="http://www.w3.org/2000/svg"
   xmlns="http://www.w3.org/2000/svg"
   xmlns:sodipodi="http://sodipodi.sourceforge.net/DTD/sodipodi-0.dtd"
   xmlns:inkscape="http://www.inkscape.org/namespaces/inkscape"
   width="25.4mm"
   height="8.5273972mm"
   viewBox="0 0 89.999998 30.215186"
   id="svg4875"
   version="1.1"
   inkscape:version="0.91 r13725"
   sodipodi:docname="flux_b.svg">
  <defs
     id="defs4877" />
  <sodipodi:namedview
     id="base"
     pagecolor="#ffffff"
     bordercolor="#666666"
     borderopacity="1.0"
     inkscape:pageopacity="0.0"
     inkscape:pageshadow="2"
     inkscape:zoom="1.4"
     inkscape:cx="61.352824"
     inkscape:cy="-83.572437"
     inkscape:document-units="px"
     inkscape:current-layer="layer1"
     showgrid="false"
     fit-margin-top="0"
     fit-margin-left="0"
     fit-margin-right="0"
     fit-margin-bottom="0"
     inkscape:window-width="1680"
     inkscape:window-height="986"
     inkscape:window-x="0"
     inkscape:window-y="27"
     inkscape:window-maximized="1" />
  <metadata
     id="metadata4880">
    <rdf:RDF>
      <cc:Work
         rdf:about="">
        <dc:format>image/svg+xml</dc:format>
        <dc:type
           rdf:resource="http://purl.org/dc/dcmitype/StillImage" />
        <dc:title></dc:title>
      </cc:Work>
    </rdf:RDF>
  </metadata>
  <g
     inkscape:label="Capa 1"
     inkscape:groupmode="layer"
     id="layer1"
     transform="translate(-80.590125,-196.4327)">
    <g
       transform="matrix(0.9097182,0,0,0.9097182,308.74054,-496.4929)"
       id="g4853"
       style="fill:#000000">
      <g
         transform="matrix(0.24243993,0,0,0.24243993,-287.21953,735.12662)"
         id="g4855"
         inkscape:label="Capa 1"
         style="fill:#000000">
        <path
           style="fill:#000000;fill-opacity:1"
           id="path4857"
           inkscape:connector-curvature="0"
           d="m 548.95917,221.4615 c -1.423,15.785 -10.35,23.688 -26.78,23.688 -7.654,0 -13.584,-2.344 -17.769,-7.023 -4.188,-4.68 -7.622,-12.734 -10.306,-24.166 -17.223,21.746 -36.254,32.615 -57.102,32.615 -6.792,0 -12.837,-2.064 -18.129,-6.188 -5.133,-4.123 -8.372,-9.84 -9.713,-17.135 -9.558,15.545 -21.601,23.322 -36.129,23.322 -7.193,0 -13.315,-2.318 -18.368,-6.965 -5.056,-4.645 -7.579,-12.158 -7.579,-22.551 0,-4.363 0.63,-9.562 1.892,-15.596 l 16.47,-78.197 34.945,0 -17.414,82.84 c -0.473,2.066 -0.711,4.129 -0.711,6.191 0,7.139 2.407,10.707 7.227,10.707 8.529,0 15.002,-7.176 19.433,-21.541 l 16.469,-78.197 34.94,0 -17.414,82.84 c -0.55,2.145 -0.828,4.203 -0.828,6.191 0,7.139 3.471,10.707 10.426,10.707 9.476,0 19.586,-4.713 30.328,-14.156 3.16,-2.779 6.002,-5.711 8.532,-8.809 l -14.104,-76.773 34.242,0 9.473,52.605 c 15.4,-16.498 23.109,-29.393 23.109,-38.676 0,-1.195 -0.081,-2.186 -0.236,-2.979 -1.584,0.314 -2.971,0.475 -4.154,0.475 -7.662,0 -11.491,-4.521 -11.491,-13.568 0,-3.648 1.283,-6.488 3.856,-8.512 2.568,-2.025 6.2,-3.033 10.902,-3.033 4.703,0 8.425,2.123 11.199,6.373 2.76,4.238 4.144,9.857 4.144,16.84 0,10.234 -6.36,23.172 -19.073,38.801 -4.348,5.396 -9.521,11.309 -15.522,17.732 l 2.13,12.145 c 1.269,7.297 2.767,12.734 4.504,16.307 1.814,3.488 5.406,5.232 10.781,5.232 2.288,0 3.947,-0.154 4.976,-0.477 l 2.844,-1.069 0,0 z" />
        <path
           d="m 188.44617,153.3525 0,19.459 39.145,0 0,31.424 -39.145,0 0,39.367 -38.194,0 0,-122.018 95.995,0 0,31.768 -57.801,0 0,0 z"
           inkscape:connector-curvature="0"
           id="path4859"
           style="fill:#000000;fill-opacity:1" />
        <path
           d="m 255.28917,243.6025 0,-122.018 38.363,0 0,91.254 46.966,0 0,30.764 -85.329,0 z"
           inkscape:connector-curvature="0"
           id="path4861"
           style="fill:#000000;fill-opacity:1" />
      </g>
    </g>
  </g>
</svg>
