<?xml version="1.0" encoding="utf-8"?>
<!-- Generator: Adobe Illustrator 16.0.4, SVG Export Plug-In . SVG Version: 6.00 Build 0)  -->
<!DOCTYPE svg PUBLIC "-//W3C//DTD SVG 1.1//EN" "http://www.w3.org/Graphics/SVG/1.1/DTD/svg11.dtd">
<svg version="1.1" id="Layer_1" xmlns="http://www.w3.org/2000/svg" xmlns:xlink="http://www.w3.org/1999/xlink" x="0px" y="0px"
	 width="103px" height="36px" viewBox="0 0 103 36" enable-background="new 0 0 103 36" xml:space="preserve">
<g id="Layer_x25_201">
	<g>
		<path fill="#FFFFFF" d="M11.412,17.228h1.779c1.877,0,3.131-0.336,3.76-1.009c0.298-0.298,0.526-0.65,0.686-1.062
			c0.233-0.685,0.394-1.361,0.481-2.031c0.086-0.672,0.1-1.38,0.037-2.126c-0.099-1.256-0.241-2.188-0.426-2.795
			c-0.187-0.61-0.469-1.095-0.852-1.457c-0.963-0.883-2.496-1.323-4.595-1.323c-2.359,0-4.397,0.44-6.114,1.323
			C5.71,6.984,5.309,7.253,4.955,7.558c-0.352,0.307-0.72,0.701-1.103,1.185l0.075,0.075c1.259-0.585,2.438-0.876,3.538-0.876
			c1.211,0,2.203,0.32,2.973,0.96c0.772,0.641,1.159,1.477,1.159,2.507c0,1.146-0.441,2.074-1.325,2.788
			c-0.882,0.714-2.034,1.072-3.456,1.072c-1.419,0-2.588-0.407-3.51-1.221c-0.921-0.814-1.38-1.843-1.38-3.086
			c0-0.894,0.271-1.75,0.816-2.564c0.543-0.813,1.296-1.501,2.259-2.06c1.965-1.145,4.754-1.716,8.373-1.716
			c1.891,0,3.646,0.156,5.262,0.467c1.618,0.311,3.002,0.75,4.15,1.323c1.147,0.572,2.043,1.257,2.687,2.051
			c0.642,0.797,0.964,1.666,0.964,2.609c0,1.505-0.724,2.78-2.167,3.823c-0.927,0.709-2.459,1.354-4.595,1.94
			c-0.804,0.198-1.915,0.403-3.334,0.614v0.073c2.259,0.314,4.059,0.676,5.401,1.093c1.338,0.415,2.423,0.927,3.25,1.537
			c0.779,0.571,1.365,1.218,1.761,1.938c0.394,0.721,0.592,1.492,0.592,2.311c0,1.058-0.32,2.018-0.962,2.883
			c-0.644,0.863-1.583,1.605-2.826,2.228c-1.242,0.623-2.693,1.095-4.354,1.417c-1.662,0.324-3.554,0.484-5.679,0.484
			c-1.135,0-2.251-0.07-3.343-0.214c-1.093-0.144-2.119-0.357-3.075-0.644c-0.957-0.285-1.714-0.595-2.269-0.932
			c-1.039-0.635-1.854-1.406-2.446-2.321C1.796,26.391,1.5,25.436,1.5,24.44c0-1.291,0.429-2.317,1.288-3.077
			c0.858-0.758,1.998-1.137,3.418-1.137c1.446,0,2.627,0.379,3.546,1.137c0.921,0.76,1.382,1.729,1.382,2.91
			c0,0.72-0.181,1.366-0.537,1.938c-0.36,0.574-0.852,1.019-1.473,1.336c-0.625,0.316-1.344,0.475-2.159,0.475
			c-1.026,0-2.002-0.244-2.928-0.728L3.965,27.37c0.58,0.993,1.626,1.782,3.14,2.365c1.511,0.586,3.301,0.876,5.364,0.876
			c2.344,0,3.964-0.464,4.852-1.397c0.409-0.458,0.686-0.895,0.834-1.306c0.494-1.428,0.686-2.908,0.575-4.438
			c-0.088-1.266-0.23-2.232-0.426-2.898c-0.198-0.664-0.488-1.183-0.87-1.558c-0.805-0.768-2.18-1.155-4.132-1.155h-1.891V17.228z"
			/>
		<path fill="#FFFFFF" d="M33.914,19.631c-1.32-0.732-2.292-1.446-2.909-2.144c-1.125-1.28-1.686-2.722-1.686-4.324
			c0-0.872,0.161-1.717,0.482-2.537c0.321-0.819,0.797-1.583,1.427-2.284c0.63-0.702,1.365-1.309,2.205-1.817
			c1.024-0.622,2.29-1.101,3.798-1.436c1.506-0.337,3.081-0.503,4.725-0.503c2.112,0,4.05,0.285,5.817,0.857
			c1.766,0.572,3.155,1.354,4.168,2.349c1.013,0.994,1.519,2.089,1.519,3.28c0,0.648-0.135,1.239-0.408,1.773
			c-0.27,0.534-0.684,1.031-1.239,1.49c-0.556,0.46-1.336,0.939-2.334,1.435c0.778,0.388,1.425,0.765,1.944,1.139
			c0.52,0.373,0.994,0.808,1.427,1.305c1.373,1.454,2.057,3.157,2.057,5.109c0,0.917-0.17,1.798-0.51,2.638
			c-0.34,0.839-0.832,1.576-1.473,2.209c-0.865,0.895-1.864,1.549-3.002,1.959c-2.296,0.858-5.111,1.285-8.447,1.285
			c-1.666,0-3.369-0.188-5.103-0.568c-1.737-0.379-3.074-0.836-4.011-1.37c-1.001-0.585-1.8-1.306-2.401-2.163
			c-0.599-0.857-0.898-1.715-0.898-2.574C29.06,22.566,30.678,20.863,33.914,19.631z M34.749,20.004
			c-0.865,0.485-1.499,1.08-1.9,1.791c-0.402,0.707-0.602,1.578-0.602,2.607c0,1.632,0.506,2.941,1.52,3.938
			c0.616,0.607,1.339,1.075,2.168,1.396c1.652,0.61,3.634,0.915,5.945,0.915c2.792,0,4.956-0.341,6.495-1.025
			c1.537-0.683,2.306-1.645,2.306-2.891c0-0.932-0.391-1.684-1.168-2.256c-0.444-0.336-0.829-0.553-1.148-0.654
			c-1.321-0.57-3.229-1.093-5.724-1.562c-1.235-0.25-2.255-0.47-3.057-0.664c-0.803-0.193-1.585-0.41-2.345-0.651
			C36.479,20.703,35.649,20.389,34.749,20.004z M48.606,15.38c0.729-0.521,1.252-1.097,1.565-1.724s0.472-1.389,0.472-2.285
			c0-1.927-0.753-3.406-2.259-4.436c-1.508-1.033-3.639-1.548-6.393-1.548c-1.483,0-2.782,0.163-3.9,0.493
			c-1.118,0.329-1.979,0.789-2.583,1.38c-0.607,0.592-0.91,1.289-0.91,2.098c0,0.856,0.366,1.555,1.095,2.088
			c0.382,0.311,0.766,0.528,1.149,0.651c1.468,0.647,3.341,1.171,5.613,1.566c1.308,0.25,2.413,0.498,3.315,0.748
			C46.672,14.661,47.617,14.982,48.606,15.38z"/>
		<path fill="#FFFFFF" d="M55.754,11.762l1.594-0.8c2.42-1.243,4.637-2.431,6.65-3.561c1.631-0.945,3.162-1.858,4.594-2.742h0.799
			v23.474l4.777,2.443h1.668v0.467H55.031v-0.467h1.592l5.059-2.555V9.433l-2.391,1.25c-0.197,0.098-0.816,0.428-1.861,0.987
			c-1.043,0.559-1.604,0.858-1.676,0.896V11.762z"/>
		<path fill="#FFFFFF" d="M80.508,19.631c-1.322-0.732-2.291-1.446-2.908-2.144c-1.123-1.28-1.686-2.722-1.686-4.324
			c0-0.872,0.16-1.717,0.48-2.537c0.322-0.819,0.799-1.583,1.426-2.284c0.631-0.702,1.365-1.309,2.205-1.817
			c1.025-0.622,2.291-1.101,3.799-1.436c1.508-0.337,3.08-0.503,4.725-0.503c2.111,0,4.053,0.285,5.816,0.857
			c1.766,0.572,3.156,1.354,4.17,2.349c1.012,0.994,1.516,2.089,1.516,3.28c0,0.648-0.133,1.239-0.406,1.773
			c-0.271,0.534-0.684,1.031-1.238,1.49c-0.559,0.46-1.336,0.939-2.338,1.435c0.779,0.388,1.43,0.765,1.945,1.139
			c0.521,0.373,0.996,0.808,1.428,1.305c1.373,1.454,2.059,3.157,2.059,5.109c0,0.917-0.172,1.798-0.512,2.638
			c-0.342,0.839-0.83,1.576-1.473,2.209c-0.865,0.895-1.865,1.549-2.998,1.959c-2.299,0.858-5.115,1.285-8.451,1.285
			c-1.668,0-3.369-0.188-5.105-0.568c-1.732-0.379-3.07-0.836-4.01-1.37c-1-0.585-1.801-1.306-2.398-2.163
			c-0.6-0.857-0.898-1.715-0.898-2.574C75.654,22.566,77.27,20.863,80.508,19.631z M81.342,20.004c-0.865,0.485-1.5,1.08-1.9,1.791
			c-0.402,0.707-0.602,1.578-0.602,2.607c0,1.632,0.506,2.941,1.521,3.938c0.617,0.607,1.34,1.075,2.166,1.396
			c1.654,0.61,3.639,0.915,5.949,0.915c2.791,0,4.953-0.341,6.49-1.025c1.539-0.683,2.307-1.645,2.307-2.891
			c0-0.932-0.391-1.684-1.166-2.256c-0.445-0.336-0.828-0.553-1.148-0.654c-1.324-0.57-3.23-1.093-5.725-1.562
			c-1.234-0.25-2.254-0.47-3.059-0.664c-0.803-0.193-1.584-0.41-2.342-0.651C83.074,20.703,82.242,20.389,81.342,20.004z
			 M95.199,15.38c0.729-0.521,1.252-1.097,1.566-1.724c0.312-0.627,0.473-1.389,0.473-2.285c0-1.927-0.754-3.406-2.26-4.436
			c-1.508-1.033-3.641-1.548-6.393-1.548c-1.482,0-2.783,0.163-3.9,0.493c-1.115,0.329-1.979,0.789-2.584,1.38
			c-0.607,0.592-0.906,1.289-0.906,2.098c0,0.856,0.363,1.555,1.092,2.088c0.381,0.311,0.766,0.528,1.146,0.651
			c1.473,0.647,3.342,1.171,5.613,1.566c1.311,0.25,2.416,0.498,3.318,0.748C93.268,14.661,94.213,14.982,95.199,15.38z"/>
	</g>
</g>
</svg>
